<svg width="42" height="33" viewBox="0 0 42 33" fill="none" xmlns="http://www.w3.org/2000/svg">
<line y1="7" x2="28.9996" y2="7" stroke="#0051FF" stroke-width="4"/>
<path d="M40.0003 7C40.0003 9.76145 37.7617 12 35.0004 12C32.239 12 30.0005 9.76145 30.0005 7C30.0005 4.23855 32.239 2 35.0004 2C37.7617 2 40.0003 4.23855 40.0003 7Z" stroke="#0051FF" stroke-width="4"/>
<line x1="41.647" y1="26.166" x2="12.5056" y2="26.166" stroke="#0051FF" stroke-width="4"/>
<path d="M2.00068 26C2.00068 23.2386 4.23924 21 7.00058 21C9.76193 21 12.0005 23.2386 12.0005 26C12.0005 28.7614 9.76193 31 7.00058 31C4.23924 31 2.00068 28.7614 2.00068 26Z" stroke="#0051FF" stroke-width="4"/>
</svg>
