<svg width="72" height="72" viewBox="0 0 72 72" fill="none" xmlns="http://www.w3.org/2000/svg">
<rect width="72" height="72" rx="8" fill="#F1F1FB"/>
<path d="M17.0705 34.0336H18.4692C18.4522 34.1264 18.4403 34.2211 18.4403 34.3184V35.8141C18.4403 36.6891 19.1519 37.4007 20.0269 37.4007H20.3907L20.3819 51.1824C20.3819 53.9768 22.655 56.2499 25.4491 56.2499C28.2431 56.2499 30.5162 53.9768 30.5162 51.183L30.5253 37.4007H30.8922C31.7672 37.4007 32.4788 36.6891 32.4788 35.8141V34.3184C32.4788 34.2211 32.4671 34.1264 32.4501 34.0336H35.2074C35.1904 34.1264 35.1785 34.2211 35.1785 34.3184V35.8141C35.1785 36.6891 35.8901 37.4007 36.7651 37.4007H37.1292L37.1201 51.1824C37.1201 53.9768 39.3932 56.2499 42.1873 56.2499C44.9816 56.2499 47.2547 53.9768 47.2547 51.183L47.2558 49.4483L50.5524 46.5294C53.3512 47.621 56.3372 45.5301 56.3081 42.5578C56.3052 42.2635 55.9506 42.1103 55.7227 42.2972L53.5926 44.0427L51.2166 43.3091L50.9611 40.832L53.088 39.089C53.3159 38.9021 53.2353 38.5245 52.9471 38.4635C50.0456 37.8532 47.4044 40.3723 47.9289 43.3282L47.2595 43.8358L47.2635 37.4007H47.6304C48.5054 37.4007 49.217 36.6891 49.217 35.8141V34.3184C49.217 34.2211 49.2053 34.1264 49.1883 34.0336H50.5869C51.5626 34.0336 52.3565 33.2397 52.3565 32.2639V31.5625C54.8032 31.2421 56.6997 29.1486 56.6997 26.6161V26.0001C56.6997 23.2465 54.4593 21.0061 51.7056 21.0061H30.8611C29.7709 21.0061 28.8839 20.119 28.8839 19.0289C28.8839 17.9384 29.7709 17.0513 30.8611 17.0513H40.0425C40.402 17.0513 40.6935 16.7602 40.6935 16.4004C40.6935 16.0413 40.402 15.7495 40.0425 15.7495H30.8611C29.0529 15.7495 27.582 17.2204 27.582 19.0289C27.582 20.8367 29.0529 22.3079 30.8611 22.3079H51.7056C53.7416 22.3079 55.3978 23.9641 55.3978 26.0001V26.6161C55.3978 28.4293 54.0827 29.9384 52.3565 30.247V29.6539C52.3565 28.6782 51.5626 27.8842 50.5869 27.8842H46.5492V26.0955H48.2851C48.6446 26.0955 48.9361 25.8044 48.9361 25.4446C48.9361 25.0854 48.6446 24.7937 48.2851 24.7937C45.2133 24.7937 18.5511 24.7937 19.3722 24.7937C19.0127 24.7937 18.7213 25.0854 18.7213 25.4446C18.7213 25.8044 19.0127 26.0955 19.3722 26.0955H21.1078V27.8842H17.0705C16.0947 27.8842 15.3008 28.6782 15.3008 29.6539V32.2639C15.3008 33.2397 16.0947 34.0336 17.0705 34.0336ZM29.2144 51.1824C29.2144 53.2585 27.5251 54.9481 25.4491 54.9481C23.373 54.9481 21.6838 53.2585 21.6838 51.183L21.6927 37.4007H29.2235L29.2144 51.1824ZM45.957 44.8226L40.9531 48.6143C39.866 49.4401 39.6815 51 40.546 52.0552C41.4108 53.1097 42.9767 53.235 43.9995 52.3317L45.9532 50.6014L45.9529 51.1824C45.9529 53.2585 44.2636 54.9481 42.1873 54.9481C40.1112 54.9481 38.4219 53.2585 38.4219 51.183L38.431 37.4007H45.9618L45.957 44.8226ZM42.6651 51.4132C42.2902 51.7202 41.7372 51.6655 41.43 51.2905C41.1228 50.9154 41.1775 50.3624 41.5526 50.0554C41.9273 49.7484 42.4803 49.803 42.7876 50.1781C43.0948 50.5525 43.04 51.1055 42.6651 51.4132ZM26.4439 27.8842V26.0955H31.1605V27.8842H26.4439ZM36.4965 26.0955H41.2134V27.8842H36.4965V26.0955ZM16.6026 29.6539C16.6026 29.3962 16.8124 29.1861 17.0705 29.1861C24.0716 29.1861 43.2363 29.1861 50.5869 29.1861C50.8449 29.1861 51.0547 29.3962 51.0547 29.6539V32.2639C51.0547 32.522 50.8449 32.7318 50.5869 32.7318C40.3882 32.7318 26.4413 32.7318 17.0705 32.7318C16.8124 32.7318 16.6026 32.522 16.6026 32.2639V29.6539Z" fill="#1A1A1A"/>
</svg>
