<svg width="33" height="33" viewBox="0 0 33 33" fill="none" xmlns="http://www.w3.org/2000/svg">
<path d="M19.5413 8.17927L22.9797 5.11219C24.221 4.00493 23.6224 1.98867 21.959 2.00041C12.762 2.06535 11.8778 9.77163 12.8543 14.8696C12.9889 15.5721 12.797 16.3068 12.289 16.8103L2.43322 26.5786C1.64375 27.3611 1.64375 28.6372 2.43322 29.4196L3.67348 30.6489C4.43527 31.4039 5.65703 31.4236 6.44276 30.6935L17.1916 20.7059C17.6695 20.2618 18.3351 20.0864 18.9791 20.1906C27.6281 21.5903 30.429 15.9749 30.9177 10.9908C31.075 9.38756 29.2343 8.65505 28.0321 9.7274L24.2017 13.1442C23.413 13.8477 22.2131 13.8162 21.4624 13.0722L19.4648 11.0923C18.6459 10.2807 18.681 8.94671 19.5413 8.17927Z" stroke="white" stroke-width="2.5"/>
</svg>
